<svg width="34" height="33" viewBox="0 0 34 33" fill="none" xmlns="http://www.w3.org/2000/svg">
<path d="M31.0965 12.9121C31.2744 12.2359 31.365 11.5487 31.365 10.8635C31.365 6.42788 27.7557 2.81794 23.3195 2.81794C22.8238 2.81794 22.3146 2.86906 21.7989 2.97C20.266 1.07735 18.0181 0 15.5697 0C11.9791 0 8.87065 2.34365 7.86124 5.753C4.02418 6.40782 1.18359 9.74082 1.18359 13.6821C1.18359 15.9131 2.10501 18.0271 3.72654 19.5509C3.44183 20.3914 3.29689 21.2591 3.29689 22.1365C3.29689 26.5721 6.90618 30.1821 11.3424 30.1821C11.6226 30.1821 11.9079 30.1646 12.2354 30.1258C13.7728 31.9576 15.9941 33 18.3876 33C22.1891 33 25.4794 30.2875 26.2507 26.6084C30.3446 26.2014 33.4783 22.7855 33.4783 18.6139C33.479 16.4761 32.6158 14.4204 31.0965 12.9121ZM30.0709 10.8635C30.0709 11.2815 30.0256 11.7001 29.946 12.1168L21.9917 7.46771L17.7386 10.053L13.4855 12.6384V9.46129L21.7769 4.30294C22.3029 4.17935 22.8219 4.11206 23.3188 4.11206C27.042 4.11206 30.0709 7.14094 30.0709 10.8635ZM2.47706 13.6821C2.47706 10.4966 4.68936 7.788 7.72859 7.10212V16.4353L11.8377 18.7854L15.9469 21.1355L12.5647 23.1511L4.86665 18.8326C3.3493 17.5398 2.47706 15.6659 2.47706 13.6821ZM12.3001 28.8103C12.5828 28.8103 11.9312 28.8608 12.3001 28.8103C12.0173 28.8103 12.0173 28.8103 12.3001 28.8103ZM18.3876 31.7059C16.5202 31.7059 14.7783 30.9456 13.5049 29.6016L22.1172 24.5319V15.0512L25.0542 16.7821V25.9406C24.5728 29.2296 21.7135 31.7059 18.3876 31.7059Z" fill="url(#paint0_angular_103_504)"/>
<path d="M14.9771 10.3682H6.56341C2.3238 15.3639 2.69247 22.888 7.40011 27.4454H14.978C15.6345 27.4435 16.1741 26.9038 16.1761 26.2474V11.5671C16.1741 10.9106 15.6345 10.371 14.978 10.3691L14.9771 10.3682Z" fill="black" fill-opacity="0.098039"/>
<path d="M14.0779 11.2676H5.87362C2.04779 16.6965 3.18296 24.2752 8.43159 28.3449H14.0779C14.7345 28.3429 15.274 27.8032 15.276 27.1468V12.4666C15.274 11.81 14.7345 11.2705 14.0779 11.2685V11.2676ZM14.0779 11.2676H5.87362C2.60158 15.9067 2.88619 22.2212 6.56207 26.5472H14.077C14.7334 26.5453 15.2731 26.0056 15.275 25.3492V12.4666C15.2731 11.81 14.7334 11.2705 14.077 11.2685L14.0779 11.2676ZM13.1791 11.2676H5.87362C2.60158 15.9067 2.88619 22.2212 6.56207 26.5472H13.1782C13.8346 26.5453 14.3743 26.0056 14.3762 25.3492V12.4666C14.3743 11.81 13.8346 11.2705 13.1782 11.2685L13.1791 11.2676Z" fill="black" fill-opacity="0.4"/>
<path d="M1.198 11.2676H13.1813C13.8385 11.2676 14.3793 11.8084 14.3793 12.4656V24.4489C14.3793 25.106 13.8385 25.6469 13.1813 25.6469H1.198C0.540826 25.6469 0 25.106 0 24.4489V12.4656C0 11.8084 0.540826 11.2676 1.198 11.2676Z" fill="#5886FF"/>
<path d="M7.18215 13.9635C8.06692 13.904 8.94477 14.1604 9.65828 14.687C10.2509 15.2159 10.5682 15.9893 10.5174 16.782C10.5271 17.2899 10.3786 17.7885 10.0924 18.2084C9.80104 18.6729 9.38153 19.0435 8.8845 19.2752C8.31622 19.5387 7.69526 19.6687 7.06894 19.6553H5.35142V22.9502H3.58984V13.9626L7.18215 13.9635ZM5.35142 18.1725H6.86761C7.34791 18.2075 7.82481 18.0655 8.20772 17.7734C8.51728 17.5743 8.69194 17.2189 8.66069 16.8521C8.66069 15.8582 8.08182 15.3611 6.92422 15.3611H5.35142V18.1725Z" fill="#F9F7F7"/>
<defs>
<radialGradient id="paint0_angular_103_504" cx="0" cy="0" r="1" gradientUnits="userSpaceOnUse" gradientTransform="translate(21.1526 5.92028) rotate(90) scale(19.9964 19.9964)">
<stop offset="0.00445921" stop-color="#1C38CC"/>
<stop offset="0.295" stop-color="#5F79D8"/>
<stop offset="0.734067" stop-color="#6B8CFF"/>
<stop offset="0.876617" stop-color="#304AD3"/>
</radialGradient>
</defs>
</svg>
